<svg xmlns="http://www.w3.org/2000/svg" width="160" height="43" xmlns:v="https://vecta.io/nano"><g fill="#211915"><path d="M56.132 9.415c0-2.007-1.054-1.872-2.062-1.894v-.575l2.646.039 3.881-.039c5.801 0 8.963 3.856 8.963 7.809 0 2.21-1.297 7.764-9.234 7.764-1.139 0-2.198-.045-3.252-.045s-1.994.023-3.003.045v-.581c1.343-.135 1.994-.18 2.062-1.691V9.426v-.011zm2.198 10.464c0 1.72 1.235 1.917 2.334 1.917 4.844 0 6.43-3.637 6.43-6.957 0-4.172-2.691-7.183-7.014-7.183-.918 0-1.343.062-1.751.09v12.133zm12.011 2.052h.425c.629 0 1.076 0 1.076-.739v-6.044c0-.981-.334-1.116-1.167-1.562v-.355l2.402-.806c.159-.085.289-.107.402-.107s.159.13.159.31v8.564c0 .739.493.739 1.122.739h.38v.581c-.759 0-1.547-.045-2.351-.045l-2.442.045v-.581h-.006zm2.402-13.047c-.584 0-1.099-.536-1.099-1.116s.538-1.071 1.099-1.071 1.099.468 1.099 1.071-.493 1.116-1.099 1.116zm4.526 6.4c0-.823-.244-1.049-1.297-1.472v-.428l2.957-1.071c.068 0 .13.045.13.22v1.455c1.28-.919 2.379-1.675 3.881-1.675 1.904 0 2.578 1.381 2.578 3.124v5.751c0 .739.493.739 1.122.739h.402v.581c-.787 0-1.569-.045-2.374-.045l-2.425.045v-.581h.402c.629 0 1.071 0 1.071-.739v-5.773c0-1.274-.782-1.894-2.062-1.894-.719 0-1.858.581-2.6 1.071v6.597c0 .739.499.739 1.122.739h.402v.581c-.782 0-1.569-.045-2.379-.045l-2.419.045v-.581h.408c.629 0 1.071 0 1.071-.739V15.28l.011.006zm11.478 1.071c-.045.203-.045.536 0 1.291.13 2.12 1.501 3.862 3.292 3.862 1.235 0 2.198-.671 3.025-1.494l.312.31c-1.031 1.359-2.306 2.52-4.147 2.52-3.563 0-4.283-3.434-4.283-4.86 0-4.375 2.957-5.666 4.527-5.666 1.819 0 3.767 1.133 3.79 3.501l-.017.406-.204.135h-6.294v-.006zm3.966-.716c.561 0 .623-.288.623-.558 0-1.139-.697-2.052-1.949-2.052-1.365 0-2.306 1.004-2.578 2.61h3.903 0zm3.071 6.292h.606c.629 0 1.071 0 1.071-.739v-6.264c0-.693-.827-.823-1.161-1.004v-.333l2.736-1.274c.13 0 .198.062.198.288v2.007h.045c.561-.868 1.501-2.295 2.867-2.295.561 0 1.275.378 1.275 1.184 0 .603-.425 1.139-1.054 1.139-.697 0-.697-.536-1.479-.536-.38 0-1.637.513-1.637 1.855v5.238c0 .739.448.739 1.076.739h1.252v.581l-3.139-.045-2.668.045v-.581l.011-.006zm8.628-2.52c.295 1.472 1.19 2.723 2.827 2.723 1.32 0 1.813-.806 1.813-1.584 0-2.633-4.884-1.787-4.884-5.379 0-1.252 1.008-2.853 3.473-2.853.714 0 1.677.203 2.555.643l.159 2.278h-.516c-.221-1.404-1.008-2.21-2.442-2.21-.895 0-1.745.513-1.745 1.472 0 2.61 5.201 1.81 5.201 5.311 0 1.472-1.19 3.033-3.852 3.033-.901 0-1.955-.31-2.736-.756l-.244-2.565.402-.113h-.011zm26.678-8.435h-.561c-.425-2.61-2.289-3.659-4.793-3.659s-6.322 1.72-6.322 7.07c0 4.511 3.235 7.747 6.679 7.747 2.221 0 4.056-1.517 4.51-3.862l.516.13-.516 3.259c-.94.581-3.479 1.184-4.957 1.184-5.246 0-8.56-3.366-8.56-8.39 0-4.573 4.096-7.854 8.492-7.854 1.819 0 3.563.581 5.291 1.184l.221 3.191h0zm.805 10.955h.431c.629 0 1.076 0 1.076-.739V8.772c0-1.455-.334-1.5-1.19-1.742v-.355c.895-.288 1.836-.688 2.311-.958.244-.13.425-.248.493-.248.136 0 .181.135.181.316v15.409c0 .739.493.739 1.122.739h.38v.581c-.759 0-1.547-.045-2.357-.045l-2.442.045v-.581h-.006zm14.395-.648c0 .406.244.423.629.423l.901-.023v.468c-.969.09-2.804.558-3.235.688l-.108-.068v-1.804c-1.343 1.094-2.379 1.872-3.971 1.872-1.212 0-2.464-.778-2.464-2.65v-5.711c0-.581-.091-1.139-1.343-1.252v-.423l2.889-.158c.249 0 .249.158.249.643v5.757c0 .671 0 2.588 1.949 2.588.759 0 1.768-.581 2.708-1.359v-6.005c0-.445-1.076-.688-1.881-.913v-.4l3.496-.31c.181 0 .181.158.181.4v8.226.011zm4.459-7.363c.895-.756 2.107-1.601 3.343-1.601 2.6 0 4.17 2.255 4.17 4.685 0 2.921-2.153 5.847-5.359 5.847-1.66 0-2.527-.536-3.116-.778l-.674.513-.47-.242c.198-1.314.312-2.61.312-3.969V8.772c0-1.455-.334-1.5-1.19-1.742v-.355c.901-.288 1.836-.688 2.311-.958.244-.13.425-.248.493-.248.136 0 .176.135.176.316v8.141l.006-.006zm0 6.067c0 .846.804 2.278 2.311 2.278 2.402 0 3.411-2.345 3.411-4.33 0-2.407-1.841-4.415-3.586-4.415-.833 0-1.524.536-2.13 1.049v5.418h-.006zM54.042 35.48h.17c.436 0 .901-.056.901-.693v-6.36c0-.631-.465-.693-.901-.693h-.17v-.366l1.807.051 1.915-.051v.366h-.17c-.436 0-.901.056-.901.693v6.36c0 .631.465.693.901.693h.17v.366c-.584 0-1.32-.045-1.926-.045l-1.796.045v-.366h0z"/><path d="M57.764 35.897c-.589 0-1.32-.045-1.926-.045h0l-1.796.045h-.057v-.468h.227c.442-.011.844-.045.85-.643h0v-6.36c0-.592-.408-.631-.85-.643h-.227v-.468h.057l1.807.045h0l1.915-.045h.057v.468H57.6c-.442.006-.85.045-.85.643h0v6.36c0 .592.408.631.85.643h.221v.468h-.057 0zm-.051-.101v-.259h-.119c-.436 0-.957-.079-.957-.744h0v-6.36c0-.671.521-.744.957-.744h.119v-.259l-1.858.045h0c-.578 0-1.28-.045-1.751-.045h0v.259h.119c.436 0 .952.073.952.744h0v6.36c0 .671-.521.744-.952.744h-.119v.259l1.739-.051h0l1.875.051h0-.006zm8.43-2.341l.023-.023v-4.55c0-.992-.697-1.139-1.065-1.139h-.266v-.366l1.705.051 1.496-.051v.366h-.181c-.516 0-1.088.096-1.088 1.539v5.525c0 .423.017.846.074 1.223h-.465l-6.283-6.969v5.001c0 1.06.204 1.421 1.144 1.421h.21v.366c-.521 0-1.048-.045-1.575-.045l-1.654.045v-.366h.17c.844 0 1.099-.569 1.099-1.539V28.83c0-.682-.567-1.088-1.11-1.088h-.159v-.366l1.399.051 1.088-.051 5.427 6.084.011-.006z"/><path d="M66.851 36.083l-.504-.017-6.192-6.867v4.866c.017 1.054.176 1.359 1.093 1.37h.261v.468h-.057c-.527 0-1.054-.045-1.575-.045h0l-1.66.045h-.051v-.468h.227c.804-.006 1.037-.519 1.048-1.488h0v-5.114c0-.643-.538-1.037-1.059-1.043h-.215v-.468h.051l1.405.045h0l1.127-.028h0l5.359 6.005v-4.465c-.006-.964-.652-1.083-1.008-1.088h-.323v-.468h.057l1.705.045h0l1.496-.045h.057v.468h-.238c-.504.017-1.02.062-1.037 1.488h0v5.525c0 .423.011.846.074 1.218h0l.011.062h-.062.011zm-.465-.107h.402c-.057-.366-.062-.767-.062-1.173h0v-5.525c0-1.455.612-1.596 1.139-1.596h.13v-.259l-1.445.045h0c-.561 0-1.105-.045-1.654-.045h0v.259h.215c.374 0 1.116.164 1.116 1.195h0l-.017 4.589-.028.023-.04.039-5.422-6.1-1.088.045h0c-.448 0-.906-.045-1.348-.045h0v.259h.108c.572 0 1.161.434 1.161 1.145h0v5.114c0 .97-.272 1.59-1.15 1.596h-.119v.259l1.603-.051h0l1.518.051h0v-.259h-.153c-.963 0-1.201-.417-1.201-1.477h0v-5.136l6.334 7.048h0 0z"/><path d="M69.871 27.981c-.918 0-.946.22-1.133 1.105h-.363l.147-1.032a7.76 7.76 0 0 0 .074-1.032h.295c.096.366.402.35.731.35h6.294c.329 0 .635-.011.657-.372l.289.051-.13.981-.023.981-.363.135c-.023-.451-.085-1.167-.901-1.167h-2v6.456c0 .936.431 1.043 1.014 1.043h.232v.366c-.476 0-1.331-.045-1.989-.045l-2.062.045v-.366h.232c.674 0 1.014-.056 1.014-1.015v-6.484h-2-.017z"/><path d="M74.68 35.897c-.482 0-1.337-.045-1.989-.045h0l-2.062.045h-.051v-.468h.283c.674-.017.946-.023.957-.964h0v-6.433h-1.949v-.101h2.057v6.535c0 .97-.397 1.071-1.065 1.071h-.181v.254l2.011-.045h0l1.932.045h0v-.254h-.176c-.589 0-1.065-.141-1.065-1.099h0v-6.512h2.057c.821 0 .923.693.952 1.145h0l.266-.096.023-.953h0l.125-.93h0l-.187-.034c-.062.35-.402.372-.708.366h-6.356c-.289 0-.601-.017-.708-.35h-.204c0 .333-.023.66-.074.987h0l-.136.97h.261c.164-.846.266-1.116 1.173-1.105h0v.101c-.901.017-.878.169-1.082 1.066h0v.039h-.476v-.062l.159-1.032h0a6.82 6.82 0 0 0 .074-1.021h0v-.056h.385V27c.091.304.317.31.629.316h6.356c.34-.006.589-.011.606-.327h0v-.056l.057.011.346.056v.051l-.136.981h0l-.023.981h0v.039l-.034.017-.431.158v-.073c-.034-.457-.085-1.116-.855-1.116h-1.949v6.405c.011.919.38.981.957.992h.283v.468h-.051v-.006zm2.573-.417h.17c.436 0 .901-.056.901-.693v-6.36c0-.631-.465-.693-.901-.693h-.17v-.366l3.037.051 3.122-.051.028 1.861-.368.096c-.057-.789-.204-1.421-1.484-1.421h-1.694v3.18h1.445c.736 0 .895-.412.963-1.066h.363l-.034 1.421.034 1.381-.363.073c-.068-.727-.108-1.201-.952-1.201h-1.462v2.83c0 .789.702.789 1.484.789 1.467 0 2.107-.096 2.476-1.483l.34.085-.414 1.928c-.782 0-2.181-.045-3.28-.045l-3.241.045v-.366.006z"/><path d="M83.779 35.897c-.782 0-2.187-.051-3.28-.051h0l-3.241.051h-.057v-.468h.227c.442-.006.844-.045.85-.643h0v-6.36c0-.592-.408-.631-.85-.643h-.227v-.468h.057l3.037.045h0l3.122-.045h.057v.056l-.017.631h0l.04 1.223h0v.045l-.04.011-.431.113v-.062c-.074-.784-.181-1.359-1.439-1.37h-1.643v3.073h1.399c.702 0 .827-.366.912-1.021h0v-.045h.47v.056l-.04 1.421h0l.04 1.381h0v.039l-.045.011-.425.085v-.056c-.091-.739-.091-1.145-.901-1.156h-1.411v2.774c0 .739.64.733 1.439.739h0c1.467-.006 2.057-.079 2.425-1.443h0l.011-.051.051.011.391.101-.011.051-.414 1.928h0v.045h-.051l-.006-.011zm-.045-.107l.397-1.838h0l-.244-.062c-.363 1.359-1.071 1.477-2.51 1.466h0c-.77 0-1.535 0-1.541-.84h0v-2.881h1.518c.85-.011.935.502.997 1.195h0l.266-.056-.034-1.342h0l.034-1.37h-.266c-.068.637-.266 1.077-1.008 1.071h-1.507v-3.287h1.751c1.269-.006 1.479.643 1.53 1.404h0l.266-.068-.034-1.184h0l.011-.575h0l-3.065.045h0c-1.003 0-2.238-.045-2.986-.045h0v.259h.119c.436 0 .952.073.957.744h0v6.36c0 .671-.521.744-.957.744h-.119v.254l3.19-.045h0l3.235.045h0v.006zm2.102-7.133c0-.885-.487-.919-.867-.919h-.221v-.366l1.892.051 1.966-.051c1.535 0 2.901.412 2.901 2.137 0 1.094-.731 1.759-1.694 2.137l2.085 3.101c.34.513.584.66 1.184.727v.366c-.402 0-.793-.045-1.195-.045l-1.15.045c-.94-1.223-1.745-2.537-2.538-3.935h-.804v2.599c0 .936.436.97.997.97h.221v.366c-.697 0-1.405-.045-2.102-.045l-1.768.045v-.366h.221c.448 0 .867-.203.867-.654v-6.168l.006.006zM87.4 31.47h.595c1.224 0 1.875-.457 1.875-1.894 0-1.077-.697-1.77-1.779-1.77-.368 0-.521.039-.691.051v3.614h0z"/><path d="M93.082 35.897c-.408 0-.799-.045-1.201-.045h0l-1.184.028h0c-.935-1.223-1.734-2.526-2.527-3.913h-.719v2.543c.011.913.38.908.946.919h.272v.468h-.057c-.697 0-1.405-.045-2.096-.045h0l-1.768.045h-.051v-.468h.272c.436 0 .804-.192.81-.603h0v-6.168c-.006-.863-.431-.857-.81-.868h-.272v-.468h.051l1.892.045h0l1.966-.045h0c1.535 0 2.952.428 2.957 2.188h0c0 1.094-.731 1.782-1.671 2.159h0l2.051 3.056c.34.507.55.631 1.144.705h.045v.468h-.051 0zM87.4 31.86h.833l.017.028c.793 1.398 1.598 2.706 2.493 3.907h0l1.144-.051h0l1.144.045h0v-.265c-.572-.068-.838-.242-1.173-.744h0l-2.124-3.163.062-.023c.952-.372 1.66-1.021 1.66-2.092h0c0-1.68-1.32-2.075-2.85-2.08h0l-1.966.045h0c-.719 0-1.439-.045-1.841-.045h0v.259h.17c.38 0 .918.062.918.975h0v6.168c0 .491-.459.71-.918.71h-.17v.254l1.717-.045h0l2.045.045h0v-.254h-.164c-.555 0-1.054-.068-1.054-1.026h0v-2.65h.051.006zm0-.333h-.051v-3.716h.045c.164-.017.329-.051.702-.051h0c1.11 0 1.836.716 1.836 1.827h0c0 1.449-.702 1.945-1.932 1.945h-.595l-.006-.006zm.595-.101c1.207-.011 1.819-.428 1.824-1.838h0c-.006-1.06-.669-1.72-1.728-1.725h0c-.329 0-.482.028-.64.045h0v3.518h.544zm13.363 2.03l.023-.023v-4.55c0-.992-.697-1.139-1.059-1.139h-.272v-.366l1.711.051 1.501-.051v.366h-.181c-.516 0-1.088.096-1.088 1.539v5.525c0 .423.011.846.068 1.223h-.459l-6.283-6.969v5.001c0 1.06.21 1.421 1.15 1.421h.21v.366c-.527 0-1.054-.045-1.575-.045l-1.66.045v-.366h.17c.844 0 1.099-.569 1.099-1.539v-5.114c0-.682-.561-1.088-1.11-1.088h-.159v-.366l1.399.051 1.088-.051 5.427 6.084v-.006z"/><path d="M102.066 36.083l-.499-.017-6.192-6.867v4.866c.017 1.06.176 1.359 1.093 1.37h.261v.468h-.051c-.527 0-1.054-.051-1.575-.051h0l-1.66.051h-.057v-.468h.227c.804 0 1.037-.519 1.048-1.494h0v-5.108c0-.648-.533-1.037-1.054-1.043h-.215v-.468h.057l1.399.045h0l1.122-.034h0l5.365 6.005v-4.465c0-.964-.652-1.083-1.008-1.088h-.323v-.468h.051l1.711.045h0l1.501-.045h.051v.468h-.232c-.504.011-1.025.062-1.037 1.488h0v5.525c0 .423.011.84.074 1.218h0v.062h-.051 0l-.006.006zm-.459-.107h.397c-.051-.361-.062-.767-.062-1.173h0v-5.525c0-1.455.618-1.59 1.139-1.596h.125v-.259l-1.445.045h0c-.561 0-1.105-.045-1.654-.045h0v.259h.215c.374 0 1.116.164 1.116 1.195h0l-.017 4.589-.023.023-.04.039-5.427-6.106-1.088.045h0c-.453 0-.906-.045-1.348-.045h0v.259h.108c.572 0 1.161.434 1.161 1.145h0v5.108c0 .975-.278 1.596-1.15 1.596h-.119v.254l1.609-.045h0l1.524.045h0v-.254h-.153c-.957 0-1.201-.417-1.201-1.477h0v-5.136l6.339 7.048h0l-.006.011zm3.621-1.867c-.125.412-.272.733-.272.947 0 .366.516.423.918.423h.136v.366l-1.479-.045-1.314.045v-.366h.074c.476 0 .878-.282 1.059-.789l1.955-5.57c.159-.451.38-1.054.453-1.505.391-.13.878-.372 1.11-.519.04-.011.057-.023.096-.023s.062 0 .085.034l.113.304 2.243 6.349.448 1.24c.147.338.402.479.804.479h.074v.366l-1.683-.045-1.83.045v-.366h.136c.278 0 .753-.045.753-.35 0-.158-.108-.485-.244-.874l-.476-1.41h-2.77l-.385 1.263h-.006zm1.779-5.379h-.023l-1.133 3.434h2.277l-1.122-3.434h0z"/><path d="M111.72 35.897l-1.677-.051h0l-1.83.051h-.057v-.051-.417h.187c.283 0 .697-.062.697-.293h0c0-.141-.102-.474-.238-.857h0l-.465-1.376h-2.691l-.38 1.223c-.125.417-.266.739-.266.93h0c0 .293.459.366.867.366h.187v.474h-.057l-1.473-.056h0l-1.314.051h-.057v-.051-.417h.125c.453 0 .833-.259 1.008-.75h0l1.955-5.57.482-1.539h0c.38-.13.872-.378 1.11-.524h0c.034-.011.068-.028.119-.028h0c.028 0 .096.006.13.073h0l.113.304h0l2.249 6.349.448 1.229h0c.142.327.368.451.759.451h.125v.474h-.057v.006zm-3.456-.107l1.779-.045h0l1.626.045h0v-.254h-.017c-.419 0-.702-.164-.855-.519h0c-.159-.366-.306-.818-.448-1.24h0l-2.243-6.349c-.04-.096-.074-.209-.102-.293h0s-.006-.011-.017-.011h-.023s-.04.006-.068.017h0a4.63 4.63 0 0 1-1.088.485h0c-.074.462-.295 1.066-.453 1.517h0l-1.949 5.57c-.187.53-.612.823-1.11.823h-.017v.254l1.263-.045h0l1.422.045h0v-.254h-.079c-.397 0-.952-.045-.969-.479h0c0-.242.147-.553.272-.964h0l.057.017-.057-.017.402-1.297h2.844l.487 1.443c.136.389.249.716.249.891h0c-.017.372-.533.4-.804.406h-.085v.254h0-.017zm-2.493-3.569l1.167-3.541h.068v.051h-.011l.011-.051h.034l1.156 3.541h-2.43.006zm.147-.107h2.136l-1.059-3.253-1.076 3.253h0zm6.346-4.133c-.918 0-.952.22-1.133 1.105h-.368l.147-1.032c.051-.338.074-.682.074-1.032h.295c.096.366.402.35.731.35h6.294c.329 0 .635-.011.657-.372l.295.051-.13.981c-.028.327-.028.654-.028.981l-.363.135c-.023-.451-.085-1.167-.901-1.167h-2v6.456c0 .936.425 1.043 1.014 1.043h.232v.366c-.476 0-1.326-.045-1.989-.045l-2.062.045v-.366h.232c.674 0 1.014-.056 1.014-1.015v-6.484h-2-.011z"/><path d="M117.068 35.897c-.476 0-1.331-.045-1.989-.045h0l-2.062.045h-.051v-.468h.283c.674-.017.94-.023.957-.964h0v-6.433h-1.943v-.101h2.051v6.535c0 .97-.391 1.066-1.065 1.071h-.181v.259l2.011-.051h0l1.938.051h0v-.259h-.181c-.589 0-1.059-.141-1.065-1.099h0v-6.512h2.051c.821 0 .923.693.952 1.145h0l.266-.096.028-.953h0l.125-.93h0l-.181-.034c-.057.35-.402.372-.708.366h-6.356c-.289 0-.595-.017-.708-.355h-.198c0 .338-.028.665-.074.987h0l-.136.97h.261c.159-.846.266-1.122 1.178-1.105h0v.101c-.906.017-.884.169-1.082 1.066h0v.039h-.482v-.062l.159-1.026h0a6.89 6.89 0 0 0 .074-1.026h0v-.056h.385l.011.039c.085.304.312.31.623.316h6.356c.334-.006.584-.011.606-.327h0v-.056l.062.011.346.056-.011.051-.13.981h0l-.023.981h0v.039l-.04.017-.431.158v-.073c-.034-.457-.079-1.116-.85-1.116h-1.949v6.405c.011.919.38.981.957.992h.283v.468h-.051-.017zm2.635-.417h.17c.442 0 .901-.056.901-.693v-6.36c0-.631-.459-.693-.901-.693h-.17v-.366l1.802.051 1.915-.051v.366h-.17c-.442 0-.906.056-.906.693v6.36c0 .631.465.693.906.693h.17v.366c-.589 0-1.32-.045-1.926-.045l-1.796.045v-.366h.006z"/><path d="M123.425 35.897c-.589 0-1.32-.051-1.926-.051h0l-1.796.051h-.051v-.468h.221c.442-.006.844-.045.85-.643h0v-6.36c0-.592-.408-.631-.85-.643h-.221v-.468h.051l1.802.045h0l1.915-.045h.051v.468h-.221c-.448.006-.85.051-.85.643h0v6.36c0 .592.408.631.85.643h.221v.468h-.051.006zm-.057-.107v-.254h-.113c-.436 0-.957-.079-.957-.744h0v-6.36c0-.671.521-.744.957-.744h.113v-.259l-1.864.045h0c-.578 0-1.28-.045-1.751-.045h0v.259h.119c.436 0 .957.073.957.744h0v6.36c0 .671-.521.744-.957.744h-.119v.254l1.739-.045h0l1.87.045h0 .006zm4.918-8.599c2.6 0 4.674 1.601 4.674 4.189 0 2.791-2.011 4.646-4.612 4.646s-4.561-1.748-4.561-4.358 1.96-4.477 4.498-4.477h0zm.181 8.305c2.368 0 2.782-2.075 2.782-3.845s-.963-3.924-2.986-3.924c-2.136 0-2.77 1.894-2.77 3.518 0 2.176.997 4.251 2.974 4.251z"/><path d="M123.731 31.668c.006-2.554 1.989-4.527 4.555-4.533h0v.107c-2.51 0-4.453 1.928-4.453 4.426h0c0 2.582 1.949 4.302 4.515 4.302h0c2.572 0 4.555-1.832 4.561-4.595h0c0-2.554-2.045-4.133-4.623-4.133h0v-.107c2.617 0 4.719 1.624 4.725 4.24h0c0 2.819-2.04 4.697-4.663 4.702h0c-2.606-.006-4.612-1.776-4.617-4.415h0v.006zm1.705-.428c0-1.629.646-3.575 2.821-3.575h0c2.074 0 3.037 2.193 3.042 3.981h0c0 1.77-.419 3.896-2.833 3.896h0v-.101c2.323 0 2.719-2.024 2.731-3.794h0c0-1.759-.952-3.868-2.935-3.868h0c-2.091 0-2.714 1.849-2.714 3.467h0c0 2.165.991 4.195 2.923 4.2h0v.101c-2.023 0-3.025-2.114-3.031-4.302h0l-.006-.006zm15.744 2.215l.023-.023v-4.55c0-.992-.697-1.139-1.065-1.139h-.261v-.366l1.705.051 1.501-.051v.366h-.181c-.516 0-1.088.096-1.088 1.539v5.525c0 .423.017.846.074 1.223h-.465l-6.283-6.969v5.001c0 1.06.204 1.421 1.15 1.421h.21v.366c-.527 0-1.048-.045-1.575-.045l-1.66.045v-.366h.17c.844 0 1.093-.569 1.093-1.539V28.83c0-.682-.561-1.088-1.11-1.088h-.159v-.366l1.405.051 1.082-.051 5.433 6.084v-.006z"/><path d="M141.882 36.083l-.504-.017-6.187-6.867v4.866c.017 1.06.176 1.353 1.093 1.364h.266v.474h-.057c-.527 0-1.054-.045-1.575-.045h0l-1.66.045h-.051v-.474h.221c.804 0 1.037-.519 1.042-1.483h0v-5.114c0-.648-.533-1.037-1.059-1.043h-.21v-.468h.051l1.405.045h0l1.127-.028h0l5.359 6.005v-4.465c0-.964-.652-1.083-1.008-1.088h-.317v-.468h.057l1.7.045h0l1.507-.045h.051v.468h-.232c-.499.017-1.02.062-1.031 1.488h0v5.525c0 .423.011.846.068 1.218h0l.011.062h-.057-.011zm-.465-.107h.402c-.057-.366-.062-.767-.062-1.173h0v-5.525c0-1.46.618-1.59 1.139-1.596h.13v-.259l-1.456.045h0c-.55 0-1.099-.045-1.649-.045h0v.259h.21c.38 0 1.116.169 1.116 1.195h0l-.017 4.589-.023.023-.04.039-5.433-6.106-1.082.045h0c-.448 0-.912-.045-1.348-.045h0v.259h.108c.572 0 1.161.434 1.161 1.145h0v5.114c0 .97-.272 1.59-1.15 1.596h-.119v.254l1.609-.045h0l1.518.045h0v-.254h-.159c-.957 0-1.195-.417-1.195-1.477h0v-5.136l6.334 7.048h0l.006.006zm3.627-1.866c-.119.412-.266.733-.266.947 0 .366.516.423.912.423h.136v.366l-1.479-.045-1.314.045v-.366h.068c.476 0 .884-.282 1.065-.789l1.955-5.57c.159-.451.374-1.054.448-1.505.391-.13.878-.372 1.11-.519.04-.011.062-.023.096-.023s.057 0 .085.034l.113.304 2.243 6.349.453 1.24c.147.338.402.479.804.479h.074v.366l-1.683-.045-1.83.045v-.366h.136c.278 0 .759-.045.759-.35 0-.158-.113-.485-.244-.874l-.476-1.41h-2.765l-.397 1.263h-.006zm1.779-5.379h-.023l-1.133 3.434h2.283l-1.127-3.434h0z"/><path d="M151.542 35.897l-1.677-.045h0l-1.83.045h-.057v-.051-.417h.187c.283 0 .702-.068.708-.299h0c0-.141-.108-.468-.244-.857h0l-.465-1.376h-2.691l-.374 1.223h0c-.119.417-.272.739-.266.93h0c0 .299.459.372.861.372h.187v.474h-.057l-1.473-.051h0l-1.314.045h-.051v-.051-.417h.119c.453 0 .838-.265 1.014-.756h0l1.955-5.57.482-1.539h0a6.48 6.48 0 0 0 1.11-.524h0c.034-.011.068-.028.119-.028h0c.028 0 .096.006.136.073h0l.108.304h0l2.243 6.349.453 1.235h0c.142.321.363.451.753.457h.125v.474h-.057-.006zm-3.456-.107l1.779-.045h0l1.626.045h0v-.254h-.017c-.414 0-.702-.164-.855-.519h0c-.164-.366-.306-.818-.453-1.24h0l-2.243-6.349-.108-.288h0s-.011-.017-.017-.017h-.023s-.04.006-.074.017h0c-.238.147-.719.395-1.088.485h0c-.074.462-.295 1.066-.448 1.517h0l-1.955 5.57c-.187.53-.606.823-1.11.823h-.017v.254l1.269-.045h0l1.428.045h0v-.254h-.085c-.397 0-.952-.045-.969-.479h0c0-.242.153-.553.272-.958h0l.045.017-.045-.017.402-1.297h2.844l.487 1.443c.136.389.244.716.244.891h0c-.017.372-.527.4-.81.406h-.079v.254h0v-.006zm-2.493-3.575l1.173-3.535h.057v.051h-.011l.011-.051h.04l1.156 3.535h-2.425 0zm.147-.101h2.136l-1.065-3.248-1.071 3.248h0zm8.878 2.542c0 .485.34.631.731.682.499.039 1.048.039 1.615-.023.51-.056.952-.35 1.167-.654.193-.271.3-.609.38-.874h.351l-.453 2.064c-1.071 0-2.147-.045-3.218-.045l-3.224.045v-.366h.17c.442 0 .918-.056.918-.812v-6.236c0-.631-.476-.693-.918-.693h-.17v-.366l1.926.051 1.858-.051v.366h-.306c-.459 0-.827.011-.827.654v6.264-.006z"/><path d="M158.408 35.897c-1.076 0-2.147-.045-3.218-.045h0l-3.224.045h-.051v-.468h.221c.442-.011.861-.039.867-.761h0v-6.241c0-.592-.419-.631-.867-.637h-.221v-.468h.051l1.926.045h0l1.858-.045h.045v.468h-.357c-.47.011-.77-.006-.776.609h0v6.264c.006.451.3.575.686.631h0l.674.023h0l.929-.045h0c.493-.062.923-.344 1.133-.631h0c.187-.259.295-.592.368-.857h0l.011-.039h.459l-.011.068-.453 2.064h0l-.011.039h-.04v-.017zm-.04-.107l.431-1.956h-.249c-.074.265-.181.592-.374.857h0c-.227.316-.68.615-1.207.677h0a8.94 8.94 0 0 1-.935.051h0c-.232 0-.47-.011-.686-.023h0c-.397-.045-.782-.214-.776-.733h0v-6.264c0-.677.425-.71.884-.71h.255v-.259l-1.802.045h0c-.635 0-1.252-.045-1.875-.045h0v.259h.119c.436 0 .969.073.969.744h0v6.241c0 .784-.533.868-.969.868h-.119v.254l3.173-.045h0l3.173.045h0l-.011-.006zm.346-8.762a1.26 1.26 0 0 1 1.286 1.28c0 .716-.55 1.274-1.286 1.274s-1.286-.558-1.286-1.274a1.26 1.26 0 0 1 1.286-1.28zm0 2.317c.572 0 1.014-.485 1.014-1.037s-.431-1.043-1.014-1.043-1.02.491-1.02 1.043.442 1.037 1.02 1.037zm-.64-.361v-.062c.159-.023.187-.017.187-.113v-.947c0-.135-.017-.18-.181-.169v-.068h.657c.221 0 .431.107.431.338 0 .192-.125.333-.306.389l.21.293c.102.13.21.254.283.299v.039h-.249c-.119 0-.221-.254-.459-.586h-.142v.423c0 .085.028.079.187.101v.062h-.618 0zm.436-.677h.147c.164 0 .244-.124.244-.327s-.119-.276-.249-.276h-.142v.598.006z"/></g><path d="M23.092.286h1.552c-.527-.011-1.042-.011-1.552 0zm1.552 42.422h-2.447 2.442.006z" fill="#ba007c"/><path d="M21.534 2.04c-10.775 0-19.506 8.694-19.506 19.418s8.73 19.412 19.506 19.412 19.506-8.688 19.511-19.412c0-10.724-8.736-19.412-19.511-19.418h0zm-4.43 30.903c-4.64-1.776-7.926-6.241-7.937-11.485.011-5.243 3.303-9.709 7.937-11.485v22.97h0zm8.855 0V9.972c4.64 1.77 7.937 6.247 7.943 11.485-.006 5.243-3.303 9.715-7.943 11.485h0z" fill="#fff"/><path d="M49.028 24.846l.04-.237a21.13 21.13 0 0 0 .232-3.022c-.011-2.672-.499-5.17-1.365-7.448C44.784 6.144 36.388.523 24.644.286h-1.552c-7.869.158-13.71 2.74-17.545 6.743C2.334 10.486.283 15.103.017 20.488v.107L0 21.051v.141.451.113l.006.462c.176 6.653 3.546 12.567 8.64 16.311 3.512 2.441 8.056 3.986 13.563 4.178h2.447c8.702-.31 15.506-3.372 19.744-8.125 2.351-2.763 4.005-6.078 4.629-9.692 0-.017 0-.028.006-.045h-.006zM21.534 40.875c-10.775 0-19.506-8.688-19.506-19.412s8.73-19.412 19.506-19.418c10.775 0 19.506 8.694 19.511 19.418 0 10.724-8.736 19.412-19.511 19.412zm4.425-30.903v22.975c4.64-1.776 7.937-6.241 7.943-11.485-.006-5.243-3.303-9.715-7.943-11.485v-.006zM9.166 21.457c.011 5.243 3.303 9.709 7.937 11.485V9.978c-4.64 1.776-7.926 6.241-7.937 11.485v-.006z" fill="#004c97"/></svg>